<?xml version="1.0" encoding="utf-8"?>
<!-- Svg Vector Icons : http://www.onlinewebfonts.com/icon -->
<!DOCTYPE svg PUBLIC "-//W3C//DTD SVG 1.1//EN" "http://www.w3.org/Graphics/SVG/1.1/DTD/svg11.dtd">
<svg version="1.1" xmlns="http://www.w3.org/2000/svg" xmlns:xlink="http://www.w3.org/1999/xlink" x="0px" y="0px" viewBox="0 0 256 256" enable-background="new 0 0 256 256" xml:space="preserve">
<metadata> Svg Vector Icons : http://www.onlinewebfonts.com/icon </metadata>
<g><g><path fill="#000000" d="M220.2,60c2.5,2.5,4.6,5.8,6.3,10c1.8,4.2,2.6,8.1,2.6,11.6v151.7c0,3.5-1.2,6.5-3.7,9c-2.5,2.5-5.4,3.7-9,3.7h-177c-3.5,0-6.5-1.2-9-3.7c-2.5-2.5-3.7-5.4-3.7-9V22.6c0-3.5,1.2-6.5,3.7-9c2.5-2.5,5.4-3.7,9-3.7h118c3.5,0,7.4,0.9,11.6,2.6c4.2,1.8,7.6,3.9,10,6.3L220.2,60z M161.7,27.9v49.5h49.5c-0.9-2.6-1.9-4.3-2.9-5.4l-41.2-41.2C166,29.7,164.3,28.8,161.7,27.9z M212.3,229.1V94.3h-54.8c-3.5,0-6.5-1.2-9-3.7c-2.5-2.5-3.7-5.4-3.7-9V26.9H43.7v202.3H212.3L212.3,229.1z M108.5,121.9c1.8,0.7,2.6,2,2.6,3.9v71.6c0,1.9-0.9,3.3-2.6,3.9c-0.7,0.2-1.2,0.3-1.6,0.3c-1.1,0-2.1-0.4-3-1.2l-21.9-22H64.8c-1.2,0-2.2-0.4-3-1.2c-0.8-0.8-1.2-1.8-1.2-3v-25.3c0-1.2,0.4-2.2,1.2-3c0.8-0.8,1.8-1.2,3-1.2H82l21.9-22C105.3,121.5,106.8,121.2,108.5,121.9L108.5,121.9z M163.4,212.7c2.7,0,4.9-1.1,6.6-3.2c11.3-14,17-29.9,17-47.8c0-17.9-5.7-33.8-17-47.8c-1.4-1.9-3.3-2.9-5.7-3.2c-2.4-0.3-4.4,0.4-6.2,1.9c-1.9,1.5-2.9,3.4-3.1,5.7c-0.2,2.3,0.4,4.4,1.9,6.3c8.8,10.8,13.2,23.1,13.2,37.1c0,14-4.4,26.3-13.2,37.1c-1.5,1.9-2.1,3.9-1.9,6.3s1.3,4.2,3.1,5.6C159.7,212,161.5,212.7,163.4,212.7L163.4,212.7z M135.6,193.2c2.4,0,4.4-0.9,6.2-2.6c7.6-8.2,11.5-17.8,11.5-28.9c0-11.1-3.8-20.7-11.5-28.8c-1.6-1.7-3.6-2.6-5.9-2.6c-2.4-0.1-4.4,0.6-6.1,2.2c-1.7,1.6-2.6,3.5-2.6,5.9c-0.1,2.3,0.7,4.4,2.4,6.1c4.6,5,6.8,10.8,6.8,17.2c0,6.5-2.3,12.3-6.8,17.2c-1.7,1.8-2.5,3.8-2.4,6.1c0.1,2.3,1,4.3,2.6,5.9C131.6,192.4,133.5,193.2,135.6,193.2L135.6,193.2z"/></g></g>
</svg>